# xmcd CD database file
#
# Track frame offsets:
#	187
#	31027
#	50332
#	58460
#	79292
#	102865
#	122585
#	153910
#	179217
#	201545
#
# Disc length: 2976 seconds
#
# Revision: 2
# Processed by: cddbd v1.5.1PL0 Copyright (c) Steve Scherf et al.
# Submitted via: CDex 1.51
#
DISCID=8c0b9e0a
DTITLE=Joe Stump - Night Of The Living Shred
DYEAR=1900
DGENRE=Heavy Metal
TTITLE0=Prestissimo/Facemelter
TTITLE1=Night Of The Living Shred
TTITLE2=Never Forgotten
TTITLE3=The Sorcerer's Apprentice
TTITLE4=The Jimi Stomp
TTITLE5=Chasing The Jack
TTITLE6=Heavy Handed
TTITLE7=Texas Chainsaw Boogie
TTITLE8=Timeless
TTITLE9=Chop Shop Serenade/Prestissimo
EXTD=
EXTT0=
EXTT1=
EXTT2=
EXTT3=
EXTT4=
EXTT5=
EXTT6=
EXTT7=
EXTT8=
EXTT9=
PLAYORDER=
